<svg xmlns="http://www.w3.org/2000/svg" width="32" height="32" viewBox="0 0 32 32">
  <defs>
    <style>
      .cls-1 {
        fill: #7d7c7a;
        fill-rule: evenodd;
      }
    </style>
  </defs>
  <g id="Comment" transform="translate(-880 -557)">
    <path id="Chat" class="cls-1" d="M10,16a1.89,1.89,0,0,0,2,2h8a2,2,0,0,0,2-2,1.89,1.89,0,0,0-2-2H12A2,2,0,0,0,10,16ZM0,10A9.9,9.9,0,0,1,10,0H22A9.9,9.9,0,0,1,32,10V30a1.89,1.89,0,0,1-2,2H10A9.9,9.9,0,0,1,0,22Z" transform="translate(880 557)"/>
  </g>
</svg>
