<svg id="Layer_1" data-name="Layer 1" xmlns="http://www.w3.org/2000/svg" viewBox="0 0 40 28"><defs><style>.cls-1{fill:#f28b90;}</style></defs><title>Legal Pairing</title><path id="Path_48" data-name="Path 48" class="cls-1" d="M17,24.51c-4.68,0-14,2.34-14,7V35H31v-3.5C31,26.85,21.63,24.51,17,24.51ZM7.63,31A19.28,19.28,0,0,1,17,28.51,19.28,19.28,0,0,1,26.27,31ZM17,21a7,7,0,1,0-7-7A7,7,0,0,0,17,21Zm0-10a3,3,0,1,1-3,3,3,3,0,0,1,3-3ZM31,24.63C33.35,26.31,35,28.55,35,31.51V35h8v-3.5C43,27.47,36,25.17,31,24.63ZM29,21A7,7,0,1,0,29,7a6.81,6.81,0,0,0-3,.7,10.91,10.91,0,0,1,0,12.6,6.81,6.81,0,0,0,3,.7Z" transform="translate(-2.95 -7.01)"/></svg>